# Blender v3.0.1 OBJ File: ''
# www.blender.org
mtllib shadowtest.mtl
o Cube_Cube.001
v -1.000000 0.000000 1.000000
v -1.000000 16.000000 1.000000
v -1.000000 0.000000 -1.000000
v -1.000000 16.000000 -1.000000
v 1.000000 0.000000 1.000000
v 1.000000 16.000000 1.000000
v 1.000000 0.000000 -1.000000
v 1.000000 16.000000 -1.000000
v -22.000000 0.000000 22.000000
v -22.000000 0.000000 -22.000000
v 22.000000 0.000000 22.000000
v 22.000000 0.000000 -22.000000
v -5.000000 1.000000 1.000000
v -5.000000 16.000000 1.000000
v -5.000000 1.000000 -1.000000
v -5.000000 16.000000 -1.000000
v -3.000000 1.000000 1.000000
v -3.000000 16.000000 1.000000
v -3.000000 1.000000 -1.000000
v -3.000000 16.000000 -1.000000
v -9.000000 2.000000 1.000000
v -9.000000 16.000000 1.000000
v -9.000000 2.000000 -1.000000
v -9.000000 16.000000 -1.000000
v -7.000000 2.000000 1.000000
v -7.000000 16.000000 1.000000
v -7.000000 2.000000 -1.000000
v -7.000000 16.000000 -1.000000
v -13.000000 3.000000 1.000000
v -13.000000 16.000000 1.000000
v -13.000000 3.000000 -1.000000
v -13.000000 16.000000 -1.000000
v -11.000000 3.000000 1.000000
v -11.000000 16.000000 1.000000
v -11.000000 3.000000 -1.000000
v -11.000000 16.000000 -1.000000
v 12.000000 1.000000 -13.000000
v 12.000000 16.000000 -13.000000
v 12.000000 1.000000 -15.000000
v 12.000000 16.000000 -15.000000
v 14.000000 1.000000 -13.000000
v 14.000000 16.000000 -13.000000
v 14.000000 1.000000 -15.000000
v 14.000000 16.000000 -15.000000
vt 0.857143 0.857143
vt 0.821429 0.571429
vt 0.857143 0.571429
vt 0.857143 0.571429
vt 0.821429 0.285714
vt 0.857143 0.285714
vt 0.857143 0.285714
vt 0.821429 0.000000
vt 0.857143 0.000000
vt 0.821429 0.589286
vt 0.785714 0.303571
vt 0.821429 0.303571
vt 0.035714 0.785714
vt 0.000000 0.821429
vt 0.000000 0.785714
vt 0.071429 0.785714
vt 0.035714 0.821429
vt 0.035714 0.785714
vt 0.785715 0.000000
vt 0.000000 0.785715
vt 0.000000 0.000000
vt 0.892857 0.267857
vt 0.857143 0.000000
vt 0.892857 0.000000
vt 0.892857 0.535714
vt 0.857143 0.267857
vt 0.892857 0.267857
vt 0.821429 0.857143
vt 0.785714 0.589286
vt 0.821429 0.589286
vt 0.821428 0.303571
vt 0.785714 0.035714
vt 0.821428 0.035714
vt 0.821428 0.000000
vt 0.785714 0.000000
vt 0.142857 0.785714
vt 0.107143 0.821429
vt 0.107143 0.785714
vt 0.964286 0.767857
vt 0.928571 0.517857
vt 0.964286 0.517857
vt 0.964285 0.517857
vt 0.928571 0.267857
vt 0.964285 0.267857
vt 0.928571 0.535714
vt 0.892857 0.285714
vt 0.928571 0.285714
vt 1.000000 0.250000
vt 0.964286 0.000000
vt 1.000000 0.000000
vt 0.107142 0.785714
vt 0.071428 0.821429
vt 0.071428 0.785714
vt 0.250000 0.785714
vt 0.214286 0.821429
vt 0.214286 0.785714
vt 1.000000 0.482143
vt 0.964286 0.250000
vt 1.000000 0.250000
vt 1.000000 0.714286
vt 0.964286 0.482143
vt 1.000000 0.482143
vt 1.000000 0.946429
vt 0.964286 0.714286
vt 1.000000 0.714286
vt 0.964286 1.000000
vt 0.928572 0.767857
vt 0.964286 0.767857
vt 0.178572 0.785714
vt 0.142858 0.821429
vt 0.142858 0.785714
vt 0.214286 0.785714
vt 0.178572 0.821429
vt 0.178572 0.785714
vt 0.928572 0.803571
vt 0.892858 0.535714
vt 0.928572 0.535714
vt 0.964286 0.267857
vt 0.928572 0.000000
vt 0.964286 0.000000
vt 0.928572 0.267857
vt 0.892858 0.000000
vt 0.892857 0.803571
vt 0.857142 0.535714
vt 0.892857 0.535714
vt 0.321428 0.785714
vt 0.285714 0.821428
vt 0.285714 0.785714
vt 0.285714 0.785714
vt 0.250000 0.821428
vt 0.250000 0.785714
vt 0.821429 0.857143
vt 0.821429 0.571429
vt 0.821429 0.285714
vt 0.785714 0.589286
vt 0.035714 0.821429
vt 0.071429 0.821429
vt 0.785715 0.785715
vt 0.857143 0.267857
vt 0.857143 0.535714
vt 0.785714 0.857143
vt 0.785714 0.303571
vt 0.142857 0.821429
vt 0.928571 0.767857
vt 0.928571 0.517857
vt 0.892857 0.535714
vt 0.964286 0.250000
vt 0.107142 0.821429
vt 0.250000 0.821429
vt 0.964286 0.482143
vt 0.964286 0.714286
vt 0.964286 0.946429
vt 0.928572 1.000000
vt 0.178572 0.821429
vt 0.214286 0.821429
vt 0.892858 0.803571
vt 0.892858 0.267857
vt 0.857142 0.803571
vt 0.321428 0.821428
vt 0.285714 0.821428
vn -1.0000 0.0000 0.0000
vn 0.0000 0.0000 -1.0000
vn 1.0000 0.0000 0.0000
vn 0.0000 0.0000 1.0000
vn 0.0000 -1.0000 0.0000
vn 0.0000 1.0000 0.0000
usemtl None
s off
f 2/1/1 3/2/1 1/3/1
f 4/4/2 7/5/2 3/6/2
f 8/7/3 5/8/3 7/9/3
f 6/10/4 1/11/4 5/12/4
f 7/13/5 1/14/5 3/15/5
f 4/16/6 6/17/6 8/18/6
f 10/19/6 11/20/6 12/21/6
f 14/22/1 15/23/1 13/24/1
f 16/25/2 19/26/2 15/27/2
f 20/28/3 17/29/3 19/30/3
f 18/31/4 13/32/4 17/33/4
f 19/34/5 13/32/5 15/35/5
f 16/36/6 18/37/6 20/38/6
f 22/39/1 23/40/1 21/41/1
f 24/42/2 27/43/2 23/44/2
f 28/45/3 25/46/3 27/47/3
f 26/48/4 21/49/4 25/50/4
f 27/51/5 21/52/5 23/53/5
f 24/54/6 26/55/6 28/56/6
f 30/57/1 31/58/1 29/59/1
f 32/60/2 35/61/2 31/62/2
f 36/63/3 33/64/3 35/65/3
f 34/66/4 29/67/4 33/68/4
f 35/69/5 29/70/5 31/71/5
f 32/72/6 34/73/6 36/74/6
f 38/75/1 39/76/1 37/77/1
f 40/78/2 43/79/2 39/80/2
f 44/81/3 41/82/3 43/79/3
f 42/83/4 37/84/4 41/85/4
f 43/86/5 37/87/5 39/88/5
f 40/89/6 42/90/6 44/91/6
f 2/1/1 4/92/1 3/2/1
f 4/4/2 8/93/2 7/5/2
f 8/7/3 6/94/3 5/8/3
f 6/10/4 2/95/4 1/11/4
f 7/13/5 5/96/5 1/14/5
f 4/16/6 2/97/6 6/17/6
f 10/19/6 9/98/6 11/20/6
f 14/22/1 16/99/1 15/23/1
f 16/25/2 20/100/2 19/26/2
f 20/28/3 18/101/3 17/29/3
f 18/31/4 14/102/4 13/32/4
f 19/34/5 17/33/5 13/32/5
f 16/36/6 14/103/6 18/37/6
f 22/39/1 24/104/1 23/40/1
f 24/42/2 28/105/2 27/43/2
f 28/45/3 26/106/3 25/46/3
f 26/48/4 22/107/4 21/49/4
f 27/51/5 25/108/5 21/52/5
f 24/54/6 22/109/6 26/55/6
f 30/57/1 32/110/1 31/58/1
f 32/60/2 36/111/2 35/61/2
f 36/63/3 34/112/3 33/64/3
f 34/66/4 30/113/4 29/67/4
f 35/69/5 33/114/5 29/70/5
f 32/72/6 30/115/6 34/73/6
f 38/75/1 40/116/1 39/76/1
f 40/78/2 44/81/2 43/79/2
f 44/81/3 42/117/3 41/82/3
f 42/83/4 38/118/4 37/84/4
f 43/86/5 41/119/5 37/87/5
f 40/89/6 38/120/6 42/90/6
