# Blender v3.0.1 OBJ File: ''
# www.blender.org
mtllib shadowtest.mtl
o Cube_Cube.001
v -7.000000 0.000000 7.000000
v -7.000000 0.500000 7.000000
v -7.000000 0.000000 -7.000000
v -7.000000 0.500000 -7.000000
v 7.000000 0.000000 7.000000
v 7.000000 0.500000 7.000000
v 7.000000 0.000000 -7.000000
v 7.000000 0.500000 -7.000000
v -7.000000 0.000000 -5.250000
v -7.000000 0.000000 -3.500000
v -7.000000 0.000000 -1.750000
v -7.000000 0.000000 0.000000
v -7.000000 0.000000 1.750000
v -7.000000 0.000000 3.500000
v -7.000000 0.000000 5.250000
v -7.000000 0.500000 5.250000
v -7.000000 0.500000 3.500000
v -7.000000 0.500000 1.750000
v -7.000000 0.500000 0.000000
v -7.000000 0.500000 -1.750000
v -7.000000 0.500000 -3.500000
v -7.000000 0.500000 -5.250000
v 7.000000 0.000000 5.250000
v 7.000000 0.000000 3.500000
v 7.000000 0.000000 1.750000
v 7.000000 0.000000 0.000000
v 7.000000 0.000000 -1.750000
v 7.000000 0.000000 -3.500000
v 7.000000 0.000000 -5.250000
v 7.000000 0.500000 -5.250000
v 7.000000 0.500000 -3.500000
v 7.000000 0.500000 -1.750000
v 7.000000 0.500000 0.000000
v 7.000000 0.500000 1.750000
v 7.000000 0.500000 3.500000
v 7.000000 0.500000 5.250000
v 5.250000 0.000000 -7.000000
v 3.500000 0.000000 -7.000000
v 1.750000 0.000000 -7.000000
v 0.000000 0.000000 -7.000000
v -1.750000 0.000000 -7.000000
v -3.500000 0.000000 -7.000000
v -5.250000 0.000000 -7.000000
v -5.250000 0.500000 -7.000000
v -3.500000 0.500000 -7.000000
v -1.750000 0.500000 -7.000000
v 0.000000 0.500000 -7.000000
v 1.750000 0.500000 -7.000000
v 3.500000 0.500000 -7.000000
v 5.250000 0.500000 -7.000000
v -5.250000 0.000000 7.000000
v -3.500000 0.000000 7.000000
v -1.750000 0.000000 7.000000
v 0.000000 0.000000 7.000000
v 1.750000 0.000000 7.000000
v 3.500000 0.000000 7.000000
v 5.250000 0.000000 7.000000
v 5.250000 0.500000 7.000000
v 3.500000 0.500000 7.000000
v 1.750000 0.500000 7.000000
v 0.000000 0.500000 7.000000
v -1.750000 0.500000 7.000000
v -3.500000 0.500000 7.000000
v -5.250000 0.500000 7.000000
v -5.250000 0.500000 -5.250000
v -3.500000 0.500000 -5.250000
v -1.750000 0.500000 -5.250000
v 0.000000 0.500000 -5.250000
v 1.750000 0.500000 -5.250000
v 3.500000 0.500000 -5.250000
v 5.250000 0.500000 -5.250000
v -5.250000 0.500000 -3.500000
v -3.500000 0.500000 -3.500000
v -1.750000 0.500000 -3.500000
v 0.000000 0.500000 -3.500000
v 1.750000 0.500000 -3.500000
v 3.500000 0.500000 -3.500000
v 5.250000 0.500000 -3.500000
v -5.250000 0.500000 -1.750000
v -3.500000 0.500000 -1.750000
v -1.750000 0.500000 -1.750000
v 0.000000 0.500000 -1.750000
v 1.750000 0.500000 -1.750000
v 3.500000 0.500000 -1.750000
v 5.250000 0.500000 -1.750000
v -5.250000 0.500000 0.000000
v -3.500000 0.500000 0.000000
v -1.750000 0.500000 0.000000
v 0.000000 0.500000 0.000000
v 1.750000 0.500000 0.000000
v 3.500000 0.500000 0.000000
v 5.250000 0.500000 0.000000
v -5.250000 0.500000 1.750000
v -3.500000 0.500000 1.750000
v -1.750000 0.500000 1.750000
v 0.000000 0.500000 1.750000
v 1.750000 0.500000 1.750000
v 3.500000 0.500000 1.750000
v 5.250000 0.500000 1.750000
v -5.250000 0.500000 3.500000
v -3.500000 0.500000 3.500000
v -1.750000 0.500000 3.500000
v 0.000000 0.500000 3.500000
v 1.750000 0.500000 3.500000
v 3.500000 0.500000 3.500000
v 5.250000 0.500000 3.500000
v -5.250000 0.500000 5.250000
v -3.500000 0.500000 5.250000
v -1.750000 0.500000 5.250000
v 0.000000 0.500000 5.250000
v 1.750000 0.500000 5.250000
v 3.500000 0.500000 5.250000
v 5.250000 0.500000 5.250000
v 5.250000 0.000000 -5.250000
v 3.500000 0.000000 -5.250000
v 1.750000 0.000000 -5.250000
v 0.000000 0.000000 -5.250000
v -1.750000 0.000000 -5.250000
v -3.500000 0.000000 -5.250000
v -5.250000 0.000000 -5.250000
v 5.250000 0.000000 -3.500000
v 3.500000 0.000000 -3.500000
v 1.750000 0.000000 -3.500000
v 0.000000 0.000000 -3.500000
v -1.750000 0.000000 -3.500000
v -3.500000 0.000000 -3.500000
v -5.250000 0.000000 -3.500000
v 5.250000 0.000000 -1.750000
v 3.500000 0.000000 -1.750000
v 1.750000 0.000000 -1.750000
v 0.000000 0.000000 -1.750000
v -1.750000 0.000000 -1.750000
v -3.500000 0.000000 -1.750000
v -5.250000 0.000000 -1.750000
v 5.250000 0.000000 0.000000
v 3.500000 0.000000 0.000000
v 1.750000 0.000000 0.000000
v 0.000000 0.000000 0.000000
v -1.750000 0.000000 0.000000
v -3.500000 0.000000 0.000000
v -5.250000 0.000000 0.000000
v 5.250000 0.000000 1.750000
v 3.500000 0.000000 1.750000
v 1.750000 0.000000 1.750000
v 0.000000 0.000000 1.750000
v -1.750000 0.000000 1.750000
v -3.500000 0.000000 1.750000
v -5.250000 0.000000 1.750000
v 5.250000 0.000000 3.500000
v 3.500000 0.000000 3.500000
v 1.750000 0.000000 3.500000
v 0.000000 0.000000 3.500000
v -1.750000 0.000000 3.500000
v -3.500000 0.000000 3.500000
v -5.250000 0.000000 3.500000
v 5.250000 0.000000 5.250000
v 3.500000 0.000000 5.250000
v 1.750000 0.000000 5.250000
v 0.000000 0.000000 5.250000
v -1.750000 0.000000 5.250000
v -3.500000 0.000000 5.250000
v -5.250000 0.000000 5.250000
vt 0.439655 0.500000
vt 0.500000 0.517242
vt 0.439655 0.517242
vt 0.500000 0.077586
vt 0.517242 0.017241
vt 0.517242 0.077586
vt 0.077586 0.017242
vt 0.017241 0.000000
vt 0.077586 0.000000
vt 0.017242 0.439655
vt 0.000000 0.500000
vt 0.000000 0.439655
vt 0.422414 0.517242
vt 0.482759 0.577586
vt 0.422414 0.577586
vt 0.077586 0.500000
vt 0.077586 0.439655
vt 0.500000 0.500000
vt 0.439655 0.439655
vt 0.500000 0.439655
vt 0.379311 0.439655
vt 0.379310 0.500000
vt 0.318966 0.439655
vt 0.318966 0.500000
vt 0.258621 0.439655
vt 0.258621 0.500000
vt 0.198276 0.439655
vt 0.198276 0.500000
vt 0.137931 0.439655
vt 0.137931 0.500000
vt 0.000000 0.517242
vt 0.060345 0.577586
vt 0.000000 0.577586
vt 0.060345 0.517242
vt 0.120690 0.577586
vt 0.120690 0.517242
vt 0.181035 0.577586
vt 0.181035 0.517242
vt 0.241379 0.577586
vt 0.241379 0.517242
vt 0.301724 0.577586
vt 0.301724 0.517242
vt 0.362069 0.577586
vt 0.362069 0.517242
vt 0.500000 0.017241
vt 0.439655 0.000000
vt 0.500000 0.000000
vt 0.439655 0.017241
vt 0.379310 0.000000
vt 0.379311 0.017241
vt 0.318966 0.000000
vt 0.318966 0.017241
vt 0.258621 0.000000
vt 0.258621 0.017241
vt 0.198276 0.000000
vt 0.198276 0.017241
vt 0.137931 0.000000
vt 0.137931 0.017242
vt 0.017242 0.500000
vt 0.077586 0.517241
vt 0.017242 0.517241
vt 0.137931 0.517242
vt 0.198276 0.517242
vt 0.258621 0.517242
vt 0.318966 0.517242
vt 0.379310 0.517242
vt 0.362069 0.939655
vt 0.422414 1.000000
vt 0.362069 1.000000
vt 0.362069 0.879310
vt 0.422414 0.939655
vt 0.362069 0.818966
vt 0.422414 0.879310
vt 0.362069 0.758621
vt 0.422414 0.818966
vt 0.362069 0.698276
vt 0.422414 0.758621
vt 0.362069 0.637931
vt 0.422414 0.698276
vt 0.422414 0.637931
vt 0.301724 0.939655
vt 0.301724 1.000000
vt 0.301724 0.879310
vt 0.301724 0.818966
vt 0.301724 0.758621
vt 0.301724 0.698276
vt 0.301724 0.637931
vt 0.241379 0.939655
vt 0.241379 1.000000
vt 0.241379 0.879310
vt 0.241379 0.818966
vt 0.241379 0.758621
vt 0.241379 0.698276
vt 0.241379 0.637931
vt 0.181035 0.939655
vt 0.181035 1.000000
vt 0.181035 0.879310
vt 0.181035 0.818966
vt 0.181035 0.758621
vt 0.181035 0.698276
vt 0.181035 0.637931
vt 0.120690 0.939655
vt 0.120690 1.000000
vt 0.120690 0.879310
vt 0.120690 0.818966
vt 0.120690 0.758621
vt 0.120690 0.698276
vt 0.120690 0.637931
vt 0.060345 0.939655
vt 0.060345 1.000000
vt 0.060345 0.879310
vt 0.060345 0.818966
vt 0.060345 0.758621
vt 0.060345 0.698276
vt 0.060345 0.637931
vt 0.000000 0.939655
vt 0.000000 1.000000
vt 0.000000 0.879310
vt 0.000000 0.818966
vt 0.000000 0.758621
vt 0.000000 0.698276
vt 0.000000 0.637931
vt 0.137931 0.077586
vt 0.137931 0.137931
vt 0.077586 0.077586
vt 0.137931 0.198276
vt 0.077586 0.137931
vt 0.137931 0.258621
vt 0.077586 0.198276
vt 0.137931 0.318966
vt 0.077586 0.258621
vt 0.137931 0.379311
vt 0.077586 0.318966
vt 0.077586 0.379311
vt 0.198276 0.077586
vt 0.198276 0.137931
vt 0.198276 0.198276
vt 0.198276 0.258621
vt 0.198276 0.318966
vt 0.198276 0.379310
vt 0.258621 0.077586
vt 0.258621 0.137931
vt 0.258621 0.198276
vt 0.258621 0.258621
vt 0.258621 0.318966
vt 0.258621 0.379310
vt 0.318966 0.077586
vt 0.318966 0.137931
vt 0.318966 0.198276
vt 0.318966 0.258621
vt 0.318966 0.318966
vt 0.318966 0.379310
vt 0.379311 0.077586
vt 0.379311 0.137931
vt 0.379311 0.198276
vt 0.379311 0.258621
vt 0.379311 0.318966
vt 0.379311 0.379310
vt 0.439655 0.077586
vt 0.439655 0.137931
vt 0.439655 0.198276
vt 0.439655 0.258621
vt 0.439655 0.318966
vt 0.439655 0.379310
vt 0.500000 0.137931
vt 0.500000 0.198276
vt 0.500000 0.258621
vt 0.500000 0.318966
vt 0.500000 0.379310
vt 0.017241 0.017242
vt 0.017241 0.077586
vt 0.017241 0.137931
vt 0.017241 0.198276
vt 0.017241 0.258621
vt 0.017242 0.318966
vt 0.017242 0.379311
vt 0.482759 1.000000
vt 0.482759 0.939655
vt 0.482759 0.879310
vt 0.482759 0.818966
vt 0.482759 0.758621
vt 0.482759 0.698276
vt 0.482759 0.637931
vt 0.000000 0.077586
vt 0.000000 0.017242
vt 0.000000 0.137931
vt 0.000000 0.198276
vt 0.000000 0.258621
vt 0.000000 0.318966
vt 0.000000 0.379311
vt 0.517242 0.439655
vt 0.517242 0.500000
vt 0.517242 0.379310
vt 0.517242 0.318966
vt 0.517242 0.258621
vt 0.517242 0.198276
vt 0.517242 0.137931
vt 0.482759 0.517242
vn -1.0000 0.0000 0.0000
vn 0.0000 0.0000 -1.0000
vn 1.0000 0.0000 0.0000
vn 0.0000 0.0000 1.0000
vn 0.0000 -1.0000 0.0000
vn 0.0000 1.0000 0.0000
usemtl None
s off
f 22/1/1 3/2/1 9/3/1
f 50/4/2 7/5/2 37/6/2
f 36/7/3 5/8/3 23/9/3
f 64/10/4 1/11/4 51/12/4
f 23/13/5 57/14/5 156/15/5
f 16/16/6 64/10/6 107/17/6
f 4/18/6 65/19/6 44/20/6
f 22/1/6 72/21/6 65/19/6
f 21/22/6 79/23/6 72/21/6
f 20/24/6 86/25/6 79/23/6
f 19/26/6 93/27/6 86/25/6
f 18/28/6 100/29/6 93/27/6
f 17/30/6 107/17/6 100/29/6
f 7/31/5 114/32/5 37/33/5
f 29/34/5 121/35/5 114/32/5
f 28/36/5 128/37/5 121/35/5
f 27/38/5 135/39/5 128/37/5
f 26/40/5 142/41/5 135/39/5
f 25/42/5 149/43/5 142/41/5
f 24/44/5 156/15/5 149/43/5
f 8/45/3 29/46/3 7/47/3
f 30/48/3 28/49/3 29/46/3
f 31/50/3 27/51/3 28/49/3
f 32/52/3 26/53/3 27/51/3
f 33/54/3 25/55/3 26/53/3
f 34/56/3 24/57/3 25/55/3
f 35/58/3 23/9/3 24/57/3
f 2/59/1 15/60/1 1/61/1
f 16/16/1 14/62/1 15/60/1
f 17/30/1 13/63/1 14/62/1
f 18/28/1 12/64/1 13/63/1
f 19/26/1 11/65/1 12/64/1
f 20/24/1 10/66/1 11/65/1
f 21/22/1 9/3/1 10/66/1
f 155/67/5 15/68/5 14/69/5
f 154/70/5 162/71/5 155/67/5
f 153/72/5 161/73/5 154/70/5
f 152/74/5 160/75/5 153/72/5
f 151/76/5 159/77/5 152/74/5
f 150/78/5 158/79/5 151/76/5
f 149/43/5 157/80/5 150/78/5
f 148/81/5 14/69/5 13/82/5
f 147/83/5 155/67/5 148/81/5
f 146/84/5 154/70/5 147/83/5
f 145/85/5 153/72/5 146/84/5
f 144/86/5 152/74/5 145/85/5
f 143/87/5 151/76/5 144/86/5
f 142/41/5 150/78/5 143/87/5
f 141/88/5 13/82/5 12/89/5
f 140/90/5 148/81/5 141/88/5
f 139/91/5 147/83/5 140/90/5
f 138/92/5 146/84/5 139/91/5
f 137/93/5 145/85/5 138/92/5
f 136/94/5 144/86/5 137/93/5
f 135/39/5 143/87/5 136/94/5
f 134/95/5 12/89/5 11/96/5
f 133/97/5 141/88/5 134/95/5
f 132/98/5 140/90/5 133/97/5
f 131/99/5 139/91/5 132/98/5
f 130/100/5 138/92/5 131/99/5
f 129/101/5 137/93/5 130/100/5
f 128/37/5 136/94/5 129/101/5
f 127/102/5 11/96/5 10/103/5
f 126/104/5 134/95/5 127/102/5
f 125/105/5 133/97/5 126/104/5
f 124/106/5 132/98/5 125/105/5
f 123/107/5 131/99/5 124/106/5
f 122/108/5 130/100/5 123/107/5
f 121/35/5 129/101/5 122/108/5
f 120/109/5 10/103/5 9/110/5
f 119/111/5 127/102/5 120/109/5
f 118/112/5 126/104/5 119/111/5
f 117/113/5 125/105/5 118/112/5
f 116/114/5 124/106/5 117/113/5
f 115/115/5 123/107/5 116/114/5
f 114/32/5 122/108/5 115/115/5
f 43/116/5 9/110/5 3/117/5
f 42/118/5 120/109/5 43/116/5
f 41/119/5 119/111/5 42/118/5
f 40/120/5 118/112/5 41/119/5
f 39/121/5 117/113/5 40/120/5
f 38/122/5 116/114/5 39/121/5
f 37/33/5 115/115/5 38/122/5
f 106/123/6 36/7/6 35/58/6
f 105/124/6 113/125/6 106/123/6
f 104/126/6 112/127/6 105/124/6
f 103/128/6 111/129/6 104/126/6
f 102/130/6 110/131/6 103/128/6
f 101/132/6 109/133/6 102/130/6
f 100/29/6 108/134/6 101/132/6
f 99/135/6 35/58/6 34/56/6
f 98/136/6 106/123/6 99/135/6
f 97/137/6 105/124/6 98/136/6
f 96/138/6 104/126/6 97/137/6
f 95/139/6 103/128/6 96/138/6
f 94/140/6 102/130/6 95/139/6
f 93/27/6 101/132/6 94/140/6
f 92/141/6 34/56/6 33/54/6
f 91/142/6 99/135/6 92/141/6
f 90/143/6 98/136/6 91/142/6
f 89/144/6 97/137/6 90/143/6
f 88/145/6 96/138/6 89/144/6
f 87/146/6 95/139/6 88/145/6
f 86/25/6 94/140/6 87/146/6
f 85/147/6 33/54/6 32/52/6
f 84/148/6 92/141/6 85/147/6
f 83/149/6 91/142/6 84/148/6
f 82/150/6 90/143/6 83/149/6
f 81/151/6 89/144/6 82/150/6
f 80/152/6 88/145/6 81/151/6
f 79/23/6 87/146/6 80/152/6
f 78/153/6 32/52/6 31/50/6
f 77/154/6 85/147/6 78/153/6
f 76/155/6 84/148/6 77/154/6
f 75/156/6 83/149/6 76/155/6
f 74/157/6 82/150/6 75/156/6
f 73/158/6 81/151/6 74/157/6
f 72/21/6 80/152/6 73/158/6
f 71/159/6 31/50/6 30/48/6
f 70/160/6 78/153/6 71/159/6
f 69/161/6 77/154/6 70/160/6
f 68/162/6 76/155/6 69/161/6
f 67/163/6 75/156/6 68/162/6
f 66/164/6 74/157/6 67/163/6
f 65/19/6 73/158/6 66/164/6
f 50/4/6 30/48/6 8/45/6
f 49/165/6 71/159/6 50/4/6
f 48/166/6 70/160/6 49/165/6
f 47/167/6 69/161/6 48/166/6
f 46/168/6 68/162/6 47/167/6
f 45/169/6 67/163/6 46/168/6
f 44/20/6 66/164/6 45/169/6
f 113/125/6 6/170/6 36/7/6
f 112/127/6 58/171/6 113/125/6
f 111/129/6 59/172/6 112/127/6
f 110/131/6 60/173/6 111/129/6
f 109/133/6 61/174/6 110/131/6
f 108/134/6 62/175/6 109/133/6
f 107/17/6 63/176/6 108/134/6
f 162/71/5 1/177/5 15/68/5
f 161/73/5 51/178/5 162/71/5
f 160/75/5 52/179/5 161/73/5
f 159/77/5 53/180/5 160/75/5
f 158/79/5 54/181/5 159/77/5
f 157/80/5 55/182/5 158/79/5
f 156/15/5 56/183/5 157/80/5
f 6/170/4 57/184/4 5/185/4
f 58/171/4 56/186/4 57/184/4
f 59/172/4 55/187/4 56/186/4
f 60/173/4 54/188/4 55/187/4
f 61/174/4 53/189/4 54/188/4
f 62/175/4 52/190/4 53/189/4
f 63/176/4 51/12/4 52/190/4
f 4/18/2 43/191/2 3/192/2
f 44/20/2 42/193/2 43/191/2
f 45/169/2 41/194/2 42/193/2
f 46/168/2 40/195/2 41/194/2
f 47/167/2 39/196/2 40/195/2
f 48/166/2 38/197/2 39/196/2
f 49/165/2 37/6/2 38/197/2
f 22/1/1 4/18/1 3/2/1
f 50/4/2 8/45/2 7/5/2
f 36/7/3 6/170/3 5/8/3
f 64/10/4 2/59/4 1/11/4
f 23/13/5 5/198/5 57/14/5
f 16/16/6 2/59/6 64/10/6
f 4/18/6 22/1/6 65/19/6
f 22/1/6 21/22/6 72/21/6
f 21/22/6 20/24/6 79/23/6
f 20/24/6 19/26/6 86/25/6
f 19/26/6 18/28/6 93/27/6
f 18/28/6 17/30/6 100/29/6
f 17/30/6 16/16/6 107/17/6
f 7/31/5 29/34/5 114/32/5
f 29/34/5 28/36/5 121/35/5
f 28/36/5 27/38/5 128/37/5
f 27/38/5 26/40/5 135/39/5
f 26/40/5 25/42/5 142/41/5
f 25/42/5 24/44/5 149/43/5
f 24/44/5 23/13/5 156/15/5
f 8/45/3 30/48/3 29/46/3
f 30/48/3 31/50/3 28/49/3
f 31/50/3 32/52/3 27/51/3
f 32/52/3 33/54/3 26/53/3
f 33/54/3 34/56/3 25/55/3
f 34/56/3 35/58/3 24/57/3
f 35/58/3 36/7/3 23/9/3
f 2/59/1 16/16/1 15/60/1
f 16/16/1 17/30/1 14/62/1
f 17/30/1 18/28/1 13/63/1
f 18/28/1 19/26/1 12/64/1
f 19/26/1 20/24/1 11/65/1
f 20/24/1 21/22/1 10/66/1
f 21/22/1 22/1/1 9/3/1
f 155/67/5 162/71/5 15/68/5
f 154/70/5 161/73/5 162/71/5
f 153/72/5 160/75/5 161/73/5
f 152/74/5 159/77/5 160/75/5
f 151/76/5 158/79/5 159/77/5
f 150/78/5 157/80/5 158/79/5
f 149/43/5 156/15/5 157/80/5
f 148/81/5 155/67/5 14/69/5
f 147/83/5 154/70/5 155/67/5
f 146/84/5 153/72/5 154/70/5
f 145/85/5 152/74/5 153/72/5
f 144/86/5 151/76/5 152/74/5
f 143/87/5 150/78/5 151/76/5
f 142/41/5 149/43/5 150/78/5
f 141/88/5 148/81/5 13/82/5
f 140/90/5 147/83/5 148/81/5
f 139/91/5 146/84/5 147/83/5
f 138/92/5 145/85/5 146/84/5
f 137/93/5 144/86/5 145/85/5
f 136/94/5 143/87/5 144/86/5
f 135/39/5 142/41/5 143/87/5
f 134/95/5 141/88/5 12/89/5
f 133/97/5 140/90/5 141/88/5
f 132/98/5 139/91/5 140/90/5
f 131/99/5 138/92/5 139/91/5
f 130/100/5 137/93/5 138/92/5
f 129/101/5 136/94/5 137/93/5
f 128/37/5 135/39/5 136/94/5
f 127/102/5 134/95/5 11/96/5
f 126/104/5 133/97/5 134/95/5
f 125/105/5 132/98/5 133/97/5
f 124/106/5 131/99/5 132/98/5
f 123/107/5 130/100/5 131/99/5
f 122/108/5 129/101/5 130/100/5
f 121/35/5 128/37/5 129/101/5
f 120/109/5 127/102/5 10/103/5
f 119/111/5 126/104/5 127/102/5
f 118/112/5 125/105/5 126/104/5
f 117/113/5 124/106/5 125/105/5
f 116/114/5 123/107/5 124/106/5
f 115/115/5 122/108/5 123/107/5
f 114/32/5 121/35/5 122/108/5
f 43/116/5 120/109/5 9/110/5
f 42/118/5 119/111/5 120/109/5
f 41/119/5 118/112/5 119/111/5
f 40/120/5 117/113/5 118/112/5
f 39/121/5 116/114/5 117/113/5
f 38/122/5 115/115/5 116/114/5
f 37/33/5 114/32/5 115/115/5
f 106/123/6 113/125/6 36/7/6
f 105/124/6 112/127/6 113/125/6
f 104/126/6 111/129/6 112/127/6
f 103/128/6 110/131/6 111/129/6
f 102/130/6 109/133/6 110/131/6
f 101/132/6 108/134/6 109/133/6
f 100/29/6 107/17/6 108/134/6
f 99/135/6 106/123/6 35/58/6
f 98/136/6 105/124/6 106/123/6
f 97/137/6 104/126/6 105/124/6
f 96/138/6 103/128/6 104/126/6
f 95/139/6 102/130/6 103/128/6
f 94/140/6 101/132/6 102/130/6
f 93/27/6 100/29/6 101/132/6
f 92/141/6 99/135/6 34/56/6
f 91/142/6 98/136/6 99/135/6
f 90/143/6 97/137/6 98/136/6
f 89/144/6 96/138/6 97/137/6
f 88/145/6 95/139/6 96/138/6
f 87/146/6 94/140/6 95/139/6
f 86/25/6 93/27/6 94/140/6
f 85/147/6 92/141/6 33/54/6
f 84/148/6 91/142/6 92/141/6
f 83/149/6 90/143/6 91/142/6
f 82/150/6 89/144/6 90/143/6
f 81/151/6 88/145/6 89/144/6
f 80/152/6 87/146/6 88/145/6
f 79/23/6 86/25/6 87/146/6
f 78/153/6 85/147/6 32/52/6
f 77/154/6 84/148/6 85/147/6
f 76/155/6 83/149/6 84/148/6
f 75/156/6 82/150/6 83/149/6
f 74/157/6 81/151/6 82/150/6
f 73/158/6 80/152/6 81/151/6
f 72/21/6 79/23/6 80/152/6
f 71/159/6 78/153/6 31/50/6
f 70/160/6 77/154/6 78/153/6
f 69/161/6 76/155/6 77/154/6
f 68/162/6 75/156/6 76/155/6
f 67/163/6 74/157/6 75/156/6
f 66/164/6 73/158/6 74/157/6
f 65/19/6 72/21/6 73/158/6
f 50/4/6 71/159/6 30/48/6
f 49/165/6 70/160/6 71/159/6
f 48/166/6 69/161/6 70/160/6
f 47/167/6 68/162/6 69/161/6
f 46/168/6 67/163/6 68/162/6
f 45/169/6 66/164/6 67/163/6
f 44/20/6 65/19/6 66/164/6
f 113/125/6 58/171/6 6/170/6
f 112/127/6 59/172/6 58/171/6
f 111/129/6 60/173/6 59/172/6
f 110/131/6 61/174/6 60/173/6
f 109/133/6 62/175/6 61/174/6
f 108/134/6 63/176/6 62/175/6
f 107/17/6 64/10/6 63/176/6
f 162/71/5 51/178/5 1/177/5
f 161/73/5 52/179/5 51/178/5
f 160/75/5 53/180/5 52/179/5
f 159/77/5 54/181/5 53/180/5
f 158/79/5 55/182/5 54/181/5
f 157/80/5 56/183/5 55/182/5
f 156/15/5 57/14/5 56/183/5
f 6/170/4 58/171/4 57/184/4
f 58/171/4 59/172/4 56/186/4
f 59/172/4 60/173/4 55/187/4
f 60/173/4 61/174/4 54/188/4
f 61/174/4 62/175/4 53/189/4
f 62/175/4 63/176/4 52/190/4
f 63/176/4 64/10/4 51/12/4
f 4/18/2 44/20/2 43/191/2
f 44/20/2 45/169/2 42/193/2
f 45/169/2 46/168/2 41/194/2
f 46/168/2 47/167/2 40/195/2
f 47/167/2 48/166/2 39/196/2
f 48/166/2 49/165/2 38/197/2
f 49/165/2 50/4/2 37/6/2
